<?xml version="1.0" standalone="no"?>
<!DOCTYPE svg PUBLIC "-//W3C//DTD SVG 20010904//EN"
 "http://www.w3.org/TR/2001/REC-SVG-20010904/DTD/svg10.dtd">
<svg version="1.0" xmlns="http://www.w3.org/2000/svg"
 width="1111.000000pt" height="1111.000000pt" viewBox="0 0 1111.000000 1111.000000"
 preserveAspectRatio="xMidYMid meet">

<g transform="translate(0.000000,1111.000000) scale(0.100000,-0.100000)"
fill="#000000" stroke="none">
<path d="M0 11083 c0 -14 1 -24 3 -22 1 2 11 14 21 27 19 22 19 22 -2 22 -17
0 -22 -6 -22 -27z"/>
<path d="M5460 9039 c-261 -23 -611 -127 -857 -254 -342 -177 -641 -448 -829
-752 -200 -322 -302 -604 -350 -963 -20 -157 -15 -543 10 -688 32 -184 109
-467 136 -495 4 -5 38 31 76 80 38 48 97 123 132 166 l64 77 -21 108 c-54 274
-55 573 -4 822 23 116 72 258 96 282 12 11 16 18 10 14 -13 -7 -18 6 -7 17 12
12 35 -6 29 -23 -3 -9 1 -23 10 -30 8 -7 15 -19 15 -27 0 -8 17 -31 38 -51 44
-44 67 -78 74 -112 7 -30 70 -174 79 -178 3 -1 4 -15 1 -30 -3 -15 -2 -25 1
-22 3 3 8 17 10 30 2 14 6 32 9 40 3 8 11 40 18 70 65 292 270 626 496 810
112 91 291 205 352 224 21 7 22 10 9 24 -8 10 -12 23 -10 30 3 8 -1 10 -13 5
-14 -5 -16 -2 -12 21 4 20 0 29 -14 37 -11 6 -17 17 -14 24 6 17 -21 48 -35
40 -11 -7 -12 3 -9 73 1 29 -3 59 -10 66 -7 10 -8 16 0 21 5 3 10 1 10 -6 0
-7 3 -9 6 -6 4 4 1 13 -5 21 -16 19 8 32 154 81 225 75 402 99 671 92 221 -5
336 -25 554 -93 330 -103 646 -316 889 -599 180 -210 320 -507 386 -816 45
-213 49 -496 9 -691 -3 -15 -13 -29 -22 -31 -15 -4 -15 -5 -1 -6 12 -1 15 -8
11 -27 -4 -21 -8 -24 -26 -18 -11 4 -52 9 -91 11 -38 2 -79 8 -90 12 -11 5
-47 14 -79 20 -46 8 -62 8 -74 -2 -13 -10 -14 -7 -8 25 4 24 3 39 -5 44 -9 5
-10 2 -6 -10 4 -10 1 -30 -7 -44 -8 -15 -26 -73 -40 -129 -71 -295 -266 -584
-539 -801 -128 -102 -386 -244 -529 -292 -38 -12 -68 -27 -68 -31 0 -5 -7 -9
-16 -9 -14 0 -15 -7 -11 -37 4 -22 2 -42 -5 -51 -8 -9 -11 -54 -9 -138 2 -98
0 -124 -11 -124 -10 0 -10 -2 1 -9 10 -6 2 -11 -25 -15 -86 -14 -234 -26 -325
-26 l-95 0 -46 -52 c-25 -29 -87 -98 -137 -152 -50 -55 -91 -105 -91 -111 0
-38 525 -60 731 -31 609 85 1132 382 1515 862 135 170 273 417 359 644 53 138
103 345 120 489 20 165 20 505 0 653 -38 291 -137 577 -292 846 -129 224 -359
475 -598 652 -57 42 -162 110 -172 110 -2 0 -9 5 -16 10 -27 23 -148 91 -199
111 -87 35 -93 37 -102 37 -5 0 -12 4 -15 9 -11 18 -276 101 -386 123 -60 11
-129 25 -153 31 -113 26 -412 35 -602 18z"/>
<path d="M5080 8190 c-9 -6 -10 -10 -3 -10 6 0 15 5 18 10 8 12 4 12 -15 0z"/>
<path d="M5846 7984 c-77 -28 -134 -81 -174 -164 -23 -46 -27 -69 -28 -140
l-1 -85 -949 -950 c-522 -522 -962 -967 -978 -987 l-28 -38 25 -42 c86 -144
178 -265 189 -247 6 10 391 403 838 854 491 497 769 780 1014 1034 l148 154
68 7 c139 15 246 111 266 239 l7 42 -27 -11 c-69 -26 -194 -2 -249 48 -47 42
-68 121 -47 176 12 33 50 76 67 76 7 0 13 5 13 10 0 6 3 9 8 9 29 -5 31 5 2
16 -46 18 -115 17 -164 -1z"/>
<path d="M4890 7618 c-135 -68 -158 -243 -46 -346 124 -114 330 -34 344 134 4
53 -3 65 -25 43 -43 -43 -173 15 -173 77 0 36 53 87 82 80 13 -3 5 3 -17 14
-53 26 -111 25 -165 -2z"/>
<path d="M6211 7309 c-78 -24 -132 -74 -170 -159 -13 -30 -138 -162 -422 -448
-861 -867 -1544 -1565 -1547 -1582 -4 -24 235 -235 260 -228 7 2 128 120 268
263 140 143 362 370 495 505 387 395 615 630 855 880 168 175 230 234 245 232
11 -2 52 -4 90 -5 84 -2 149 27 208 92 65 72 92 228 37 214 -11 -3 -25 -11
-31 -19 -17 -20 -106 -17 -156 6 -83 37 -110 136 -54 198 22 23 39 32 63 33
30 0 31 1 11 9 -38 15 -116 20 -152 9z"/>
<path d="M2800 6945 c-16 -437 21 -785 118 -1095 91 -294 241 -596 420 -845
261 -364 634 -677 1047 -880 453 -223 899 -317 1420 -302 387 11 676 70 1025
208 281 111 673 361 844 538 35 37 55 91 34 91 -4 0 -8 -8 -8 -17 0 -22 -6
-14 -14 20 -4 19 -3 26 4 22 5 -3 10 -2 10 4 0 5 -4 13 -10 16 -5 3 -10 3 -10
-2 0 -4 -25 -9 -55 -9 -52 -2 -66 9 -40 29 6 4 5 10 -4 16 -7 5 -10 14 -7 20
4 6 0 21 -8 33 -9 12 -16 17 -16 11 0 -6 -6 -13 -14 -16 -9 -4 -12 0 -9 12 3
14 -2 17 -26 15 -23 -1 -31 2 -31 14 -1 14 -3 14 -16 -3 -8 -11 -18 -20 -22
-20 -15 0 -61 -49 -55 -58 3 -6 1 -7 -5 -3 -7 4 -46 -19 -89 -51 -306 -230
-735 -415 -1116 -483 -159 -28 -401 -41 -597 -30 -200 10 -274 21 -454 66
-295 74 -553 191 -839 381 -161 107 -271 198 -417 349 -298 308 -510 684 -638
1134 -61 216 -90 422 -91 653 -1 82 -4 107 -14 107 -8 0 -13 -10 -13 -22 1
-18 -5 -23 -24 -23 -18 0 -25 5 -25 20 0 26 -13 35 -55 35 -19 1 -53 7 -75 15
-30 11 -41 11 -47 2 -5 -7 -8 -2 -8 15 0 14 6 29 13 31 7 4 6 6 -4 6 -12 1
-19 -12 -25 -41 l-8 -43 -6 55 c-4 30 -7 43 -8 28 -4 -55 -21 -26 -25 40 -2
55 -4 48 -7 -43z m4803 -2272 c-7 -2 -21 -2 -30 0 -10 3 -4 5 12 5 17 0 24 -2
18 -5z m-6 -19 c-3 -3 -12 -4 -19 -1 -8 3 -5 6 6 6 11 1 17 -2 13 -5z"/>
<path d="M2940 6920 c0 -5 23 -10 50 -10 28 0 50 5 50 10 0 6 -22 10 -50 10
-27 0 -50 -4 -50 -10z"/>
<path d="M5783 6020 c-35 -20 -61 -44 -78 -75 -34 -56 -55 -146 -45 -188 18
-82 76 -154 150 -185 57 -23 157 -13 216 24 82 50 140 172 113 240 -6 17 -13
24 -17 18 -11 -17 -49 -34 -76 -34 -40 0 -103 29 -120 55 -40 60 -4 134 65
136 l34 1 -40 19 c-63 29 -139 25 -202 -11z"/>
<path d="M4868 4935 c2 -14 6 -25 7 -25 1 0 5 11 7 25 3 16 1 25 -7 25 -8 0
-10 -9 -7 -25z"/>
<path d="M4840 4924 c0 -8 5 -12 10 -9 6 4 8 11 5 16 -9 14 -15 11 -15 -7z"/>
<path d="M4815 4920 c-3 -5 -1 -10 4 -10 6 0 11 5 11 10 0 6 -2 10 -4 10 -3 0
-8 -4 -11 -10z"/>
<path d="M4795 4890 c3 -6 -4 -14 -17 -19 -13 -6 -16 -10 -8 -10 10 -1 6 -9
-12 -26 -29 -27 -44 -33 -32 -12 4 7 3 9 -2 4 -5 -5 -9 -12 -9 -16 0 -4 -8
-15 -17 -25 -10 -10 -18 -24 -18 -32 0 -8 -4 -14 -10 -14 -5 0 -10 -4 -10 -10
0 -17 18 -11 24 8 4 9 15 28 26 42 12 15 18 18 14 8 -5 -15 0 -18 26 -18 21 0
30 4 27 13 -2 6 -11 11 -21 9 -23 -4 -20 4 15 38 18 16 28 30 23 30 -4 0 -3 5
4 12 15 15 15 28 1 28 -5 0 -7 -5 -4 -10z"/>
<path d="M4830 4891 c0 -5 5 -13 10 -16 6 -3 10 -2 10 4 0 5 -4 13 -10 16 -5
3 -10 2 -10 -4z"/>
<path d="M7487 4835 c3 -8 9 -12 14 -9 12 7 11 11 -5 17 -10 4 -13 1 -9 -8z"/>
<path d="M4781 4816 c-9 -11 -8 -15 5 -20 23 -9 34 -7 34 5 0 6 -7 9 -14 6
-10 -4 -13 -1 -9 9 7 18 -1 18 -16 0z"/>
<path d="M5040 4810 c0 -5 5 -10 11 -10 5 0 7 5 4 10 -3 6 -8 10 -11 10 -2 0
-4 -4 -4 -10z"/>
<path d="M4706 4745 c-9 -26 -7 -32 5 -12 6 10 9 21 6 23 -2 3 -7 -2 -11 -11z"/>
<path d="M4627 4726 c-4 -10 -3 -15 3 -11 6 3 10 1 10 -6 0 -7 3 -10 6 -6 3 3
2 13 -4 22 -8 16 -9 16 -15 1z"/>
<path d="M4703 4716 c-15 -8 -19 -16 -13 -26 7 -12 12 -11 29 4 11 10 26 16
33 13 8 -3 1 -10 -17 -17 -29 -11 -29 -12 -11 -26 11 -8 25 -14 30 -14 6 0 4
5 -4 10 -13 8 -12 10 4 10 11 0 16 3 13 7 -8 8 11 33 25 33 6 0 5 -7 -2 -15
-7 -9 -8 -15 -2 -15 12 0 21 21 15 38 -6 15 -70 14 -100 -2z"/>
<path d="M7615 4720 c-3 -5 3 -10 14 -10 12 0 21 5 21 10 0 6 -6 10 -14 10 -8
0 -18 -4 -21 -10z"/>
<path d="M4980 4676 c0 -8 5 -18 10 -21 13 -8 40 12 40 29 0 6 -7 3 -14 -6
-16 -22 -27 -23 -20 -3 4 8 1 15 -5 15 -6 0 -11 -6 -11 -14z"/>
<path d="M4785 4660 c-3 -5 1 -10 10 -10 9 0 13 5 10 10 -3 6 -8 10 -10 10 -2
0 -7 -4 -10 -10z"/>
<path d="M7745 4660 c-3 -5 -1 -10 4 -10 6 0 11 5 11 10 0 6 -2 10 -4 10 -3 0
-8 -4 -11 -10z"/>
<path d="M4890 4600 c19 -13 30 -13 30 0 0 6 -10 10 -22 10 -19 0 -20 -2 -8
-10z"/>
<path d="M4925 4580 c-3 -5 -1 -10 4 -10 6 0 11 5 11 10 0 6 -2 10 -4 10 -3 0
-8 -4 -11 -10z"/>
<path d="M1360 3176 c-3 -2 -4 -216 -2 -475 l2 -471 90 0 90 0 1 428 c1 235 2
447 3 472 l1 45 -90 3 c-50 1 -93 1 -95 -2z"/>
<path d="M1839 3175 c-1 -3 -1 -14 -1 -25 0 -11 0 -223 1 -470 l1 -450 323 2
322 3 0 95 0 95 -225 5 -225 5 -3 373 -2 372 -95 0 c-52 0 -95 -2 -96 -5z"/>
<path d="M3200 2705 l0 -475 320 0 c176 0 320 1 321 3 6 19 10 154 5 172 l-6
25 -220 0 -220 0 -2 373 -3 372 -97 3 -98 3 0 -476z"/>
<path d="M4010 3173 c0 -5 0 -161 0 -348 0 -392 2 -403 80 -488 123 -135 338
-166 513 -74 71 37 110 81 151 167 l31 65 0 340 0 340 -97 3 -97 3 -3 -328
c-3 -322 -3 -329 -26 -365 -62 -100 -254 -104 -325 -7 -31 43 -36 98 -37 407
l0 292 -95 0 c-52 0 -95 -3 -95 -7z"/>
<path d="M5085 3168 c-3 -7 -4 -220 -3 -473 l3 -460 95 0 95 0 5 275 5 275 21
-35 c12 -19 56 -98 99 -175 43 -77 83 -143 89 -147 19 -13 221 -9 238 5 8 6
60 93 114 192 l99 180 5 -290 5 -290 94 0 94 0 4 473 5 473 -117 -3 -117 -3
-52 -100 c-28 -55 -98 -196 -154 -313 l-103 -213 -82 168 c-45 92 -116 236
-158 318 l-76 150 -102 3 c-75 2 -103 -1 -106 -10z"/>
<path d="M6420 2695 l0 -465 95 0 95 0 0 465 0 465 -95 0 -95 0 0 -465z"/>
<path d="M6828 3153 c-2 -5 -2 -214 0 -466 l4 -458 91 3 92 3 5 249 5 249 40
-49 c22 -27 118 -140 213 -252 l173 -203 72 3 72 3 0 460 0 460 -92 3 -93 3
-2 -291 -3 -291 -210 257 c-115 142 -221 272 -234 291 -22 30 -29 33 -77 33
-29 0 -54 -3 -56 -7z"/>
<path d="M8151 3143 c-17 -34 -361 -892 -361 -902 0 -13 168 -15 186 -3 6 4
18 27 26 52 l15 45 200 3 199 2 24 -50 23 -50 98 0 c98 0 98 0 90 23 -5 12
-31 76 -58 142 -28 66 -105 263 -173 438 l-124 317 -67 0 c-55 0 -70 -3 -78
-17z m94 -310 c22 -51 115 -323 115 -334 0 -5 -62 -9 -141 -9 -130 0 -141 1
-135 18 35 95 140 362 143 362 1 0 10 -17 18 -37z"/>
<path d="M8840 2696 l0 -466 89 0 c62 0 90 4 93 13 3 6 5 71 6 142 l1 130 62
3 c74 4 67 9 206 -160 l104 -128 104 0 c58 0 105 3 105 8 0 4 -52 72 -116 151
-63 79 -114 147 -112 151 2 5 31 28 64 53 48 35 68 59 93 108 27 54 31 72 31
144 0 99 -28 164 -97 225 -85 75 -125 84 -395 88 l-238 4 0 -466z m470 249
c102 -53 84 -204 -29 -235 -20 -5 -82 -10 -138 -10 -87 0 -104 3 -111 18 -5 9
-9 67 -8 127 l1 110 65 5 c104 8 186 2 220 -15z"/>
<path d="M2670 2550 l0 -111 133 3 132 3 3 108 3 107 -136 0 -135 0 0 -110z"/>
<path d="M3316 1803 c-3 -3 -6 -103 -6 -220 l0 -214 43 3 42 3 5 129 5 130
110 -99 c128 -114 203 -175 216 -175 5 0 9 94 9 219 l0 218 -37 6 c-20 4 -40
4 -45 1 -4 -3 -8 -61 -8 -130 0 -68 -3 -124 -7 -124 -3 0 -45 35 -92 78 -154
139 -221 189 -235 175z"/>
<path d="M4037 1804 c-4 -4 -7 -103 -7 -221 l0 -214 158 3 157 3 3 37 3 37
-113 3 -113 3 0 45 0 45 98 3 97 3 0 39 0 39 -97 3 -98 3 0 40 0 40 113 3 112
3 0 39 0 40 -139 0 c-77 0 -146 2 -153 5 -8 3 -17 2 -21 -1z"/>
<path d="M6165 1798 c-161 -56 -197 -291 -61 -390 112 -81 280 -48 335 65 49
102 36 195 -38 268 -64 64 -153 86 -236 57z m135 -98 c96 -49 93 -188 -4 -234
-45 -21 -74 -20 -114 4 -76 47 -93 141 -36 202 50 52 92 60 154 28z"/>
<path d="M4592 1758 l3 -43 57 -3 58 -3 2 -167 3 -167 45 0 45 0 -4 167 -4
167 74 3 74 3 3 43 3 42 -181 0 -181 0 3 -42z"/>
<path d="M5160 1787 c0 -8 27 -87 61 -178 33 -90 66 -180 73 -199 11 -31 17
-35 47 -35 l33 0 50 127 c27 70 52 125 56 123 4 -2 29 -61 55 -130 48 -124 49
-125 81 -125 26 0 34 5 42 28 43 118 142 396 142 399 0 2 -23 3 -52 1 l-51 -3
-41 -122 c-23 -67 -44 -124 -47 -127 -3 -3 -26 52 -50 122 l-46 127 -39 3 -39
2 -40 -121 c-22 -66 -45 -121 -50 -122 -6 -1 -28 53 -50 121 l-39 122 -48 0
c-33 0 -48 -4 -48 -13z"/>
<path d="M6750 1585 l0 -215 45 0 44 0 3 68 3 67 41 3 c39 3 42 1 95 -67 53
-69 55 -70 102 -71 26 0 47 3 47 6 0 8 -60 95 -84 122 l-20 23 30 24 c85 66
67 199 -33 241 -21 9 -73 14 -153 14 l-120 0 0 -215z m252 108 c10 -9 18 -29
18 -45 0 -24 -6 -32 -36 -44 -21 -9 -57 -14 -87 -12 l-52 3 -3 58 -3 57 72 0
c53 0 77 -4 91 -17z"/>
<path d="M7360 1585 l0 -215 45 0 45 0 0 48 c0 41 5 55 33 87 l34 39 71 -90
70 -89 51 3 c28 2 51 6 51 9 0 2 -37 52 -83 111 -46 59 -86 113 -91 120 -5 8
16 37 59 84 96 103 97 108 36 108 l-51 0 -87 -101 -88 -101 -3 101 -3 101 -44
0 -45 0 0 -215z"/>
<path d="M8040 1788 c-13 -7 -35 -29 -48 -48 -51 -74 -8 -164 90 -191 76 -20
97 -31 104 -51 16 -53 -76 -77 -148 -38 -36 19 -37 19 -59 1 -22 -18 -23 -19
-5 -46 36 -55 155 -76 230 -40 54 26 78 68 73 128 -6 69 -23 84 -159 132 -54
19 -72 50 -42 72 24 18 56 16 100 -4 l36 -18 24 28 c30 35 30 43 -2 63 -33 22
-160 30 -194 12z"/>
<path d="M0 37 c0 -36 1 -37 37 -37 37 0 37 0 16 15 -12 9 -29 26 -38 38 -15
21 -15 21 -15 -16z"/>
</g>
</svg>
